<svg id="hotdog_x5F_vendor" enable-background="new 0 0 300 300" height="512" viewBox="0 0 300 300" width="512" xmlns="http://www.w3.org/2000/svg"><circle cx="116" cy="115.286" fill="#edebdc" r="90"/><path d="m90 153.286h168v92h-168z" fill="#fff"/><path d="m258 249.286h-168c-2.209 0-4-1.791-4-4v-92c0-2.209 1.791-4 4-4h168c2.209 0 4 1.791 4 4v92c0 2.209-1.791 4-4 4zm-164-8h160v-84h-160z" fill="#4c241d"/><circle cx="177.912" cy="242.626" fill="#b5a19c" r="28.088"/><path d="m177.912 274.714c-17.693 0-32.088-14.395-32.088-32.088s14.395-32.088 32.088-32.088 32.088 14.395 32.088 32.088-14.395 32.088-32.088 32.088zm0-56.176c-13.281 0-24.088 10.807-24.088 24.088s10.807 24.088 24.088 24.088 24.088-10.807 24.088-24.088-10.807-24.088-24.088-24.088z" fill="#4c241d"/><circle cx="177.912" cy="242.626" fill="#6b4f5b" r="9.435"/><path d="m177.912 256.062c-7.408 0-13.436-6.027-13.436-13.436s6.027-13.436 13.436-13.436 13.436 6.027 13.436 13.436-6.028 13.436-13.436 13.436zm0-18.872c-2.998 0-5.436 2.438-5.436 5.436s2.438 5.436 5.436 5.436 5.436-2.438 5.436-5.436-2.438-5.436-5.436-5.436z" fill="#4c241d"/><path d="m211.424 219.95c-1.176 0-2.34-.516-3.129-1.506-7.422-9.309-18.496-14.648-30.383-14.648-10.43 0-20.219 4.078-27.564 11.482-1.555 1.566-4.09 1.578-5.656.023-1.568-1.557-1.58-4.088-.023-5.656 8.859-8.932 20.666-13.85 33.244-13.85 14.336 0 27.689 6.438 36.637 17.66 1.377 1.729 1.094 4.244-.633 5.621-.737.589-1.618.874-2.493.874z" fill="#4c241d"/><path d="m90 221.286c-6.627 0-12-5.373-12-12v-36h12z" fill="#ffce56"/><g fill="#4c241d"><path d="m90 225.286c-8.822 0-16-7.178-16-16v-36c0-2.209 1.791-4 4-4h12c2.209 0 4 1.791 4 4v48c0 2.209-1.791 4-4 4zm-8-48v32c0 2.955 1.611 5.541 4 6.926v-38.926z"/><path d="m94 145.286c-2.209 0-4-1.791-4-4v-56c0-2.209 1.791-4 4-4s4 1.791 4 4v56c0 2.209-1.791 4-4 4z"/><path d="m253.846 144.628c-2.209 0-4-1.791-4-4v-60.223c0-2.209 1.791-4 4-4s4 1.791 4 4v60.223c0 2.209-1.791 4-4 4z"/></g><path d="m259.32 37.286h-171.193s-9.475 37.386-9.475 38.108c0 8.629 6.995 15.625 15.625 15.625 5.682 0 10.607-3.064 13.342-7.599 2.735 4.535 7.66 7.599 13.341 7.599 5.682 0 10.607-3.064 13.342-7.599 3.698 5.866 7.66 7.599 13.341 7.599 5.682 0 10.607-3.064 13.342-7.599 5.015 5.866 7.66 7.599 13.341 7.599 5.682 0 10.607-3.064 13.342-7.599 2.735 4.535 7.66 7.599 13.341 7.599 5.682 0 10.607-3.064 13.342-7.599 2.735 4.535 7.66 7.599 13.341 7.599 5.682 0 10.607-3.064 13.342-7.599 2.735 4.535 7.66 7.599 13.342 7.599 8.629 0 15.625-6.996 15.625-15.625-.001-.722-10.681-38.108-10.681-38.108z" fill="#f53e28"/><path d="m254.375 95.019c-5.053 0-9.766-1.91-13.342-5.277-3.576 3.367-8.289 5.277-13.342 5.277-5.051 0-9.766-1.912-13.34-5.279-3.576 3.367-8.289 5.279-13.342 5.279s-9.766-1.912-13.342-5.279c-3.576 3.367-8.289 5.279-13.342 5.279-5.842 0-9.334-1.715-13.143-5.469-3.598 3.486-8.395 5.469-13.541 5.469-5.664 0-9.895-1.598-13.422-5.203-3.566 3.32-8.246 5.203-13.262 5.203-5.051 0-9.766-1.912-13.34-5.279-3.576 3.367-8.291 5.279-13.342 5.279-10.82 0-19.625-8.805-19.625-19.625 0-.627 0-1.219 9.598-39.09.449-1.775 2.047-3.018 3.877-3.018h171.195c1.785 0 3.355 1.184 3.846 2.9 10.834 37.926 10.834 38.493 10.834 39.208 0 10.82-8.805 19.625-19.625 19.625zm-13.342-15.598c1.402 0 2.701.734 3.426 1.934 2.139 3.547 5.846 5.664 9.916 5.664 6.279 0 11.41-5.004 11.619-11.232-.738-2.971-5.953-21.391-9.691-34.5h-165.063c-3.428 13.551-7.975 31.652-8.582 34.449.182 6.252 5.324 11.283 11.619 11.283 4.068 0 7.775-2.117 9.916-5.666.725-1.199 2.023-1.934 3.426-1.934 1.402 0 2.701.734 3.426 1.936 2.139 3.547 5.846 5.664 9.914 5.664 4.07 0 7.777-2.117 9.916-5.664.717-1.189 1.998-1.922 3.387-1.936h.039c1.373 0 2.65.703 3.383 1.867 3.039 4.818 5.846 5.732 9.959 5.732 4.07 0 7.777-2.117 9.916-5.664.664-1.102 1.816-1.816 3.096-1.922 1.301-.107 2.535.41 3.371 1.387 4.674 5.469 6.305 6.199 10.301 6.199 4.07 0 7.777-2.117 9.916-5.664 1.449-2.402 5.402-2.402 6.852 0 2.139 3.547 5.846 5.664 9.916 5.664s7.777-2.117 9.916-5.664c1.449-2.402 5.402-2.402 6.852 0 2.139 3.547 5.846 5.664 9.914 5.664 4.07 0 7.777-2.117 9.916-5.664.723-1.199 2.022-1.933 3.424-1.933z" fill="#4c241d"/><path d="m160.985 83.42c5.015 5.866 7.66 7.599 13.341 7.599 5.682 0 10.607-3.064 13.342-7.599l-1.668-46.134h-24z" fill="#fff"/><path d="m174.326 95.019c-7.434 0-11.062-2.777-16.383-9-.639-.748-.98-1.705-.959-2.688l1.016-46.133c.049-2.174 1.824-3.912 4-3.912h24c2.152 0 3.92 1.703 3.998 3.855l1.668 46.133c.027.777-.172 1.545-.572 2.209-3.6 5.971-9.867 9.536-16.768 9.536zm-9.308-13.059c3.938 4.434 5.609 5.059 9.309 5.059 3.701 0 7.104-1.752 9.299-4.738l-1.482-40.994h-16.23z" fill="#4c241d"/><path d="m214.351 83.42c2.735 4.535 7.66 7.599 13.341 7.599 5.682 0 10.607-3.064 13.342-7.599l-7.034-46.134h-24z" fill="#fff"/><path d="m227.691 95.019c-6.898 0-13.166-3.564-16.766-9.535-.311-.514-.5-1.092-.557-1.689l-4.352-46.133c-.105-1.121.266-2.234 1.023-3.066.758-.834 1.832-1.309 2.959-1.309h24c1.977 0 3.656 1.443 3.955 3.396l7.033 46.135c.141.926-.047 1.869-.529 2.67-3.6 5.968-9.867 9.531-16.766 9.531zm-9.449-12.952c2.188 3.115 5.66 4.951 9.449 4.951 3.621 0 6.953-1.676 9.152-4.541l-6.279-41.191h-16.17z" fill="#4c241d"/><path d="m134.302 84.405c-2.735 3.947-7.66 6.614-13.342 6.614s-10.607-2.667-13.341-6.614l6.381-47.119h24z" fill="#fff"/><path d="m120.959 95.019c-6.797 0-13.012-3.115-16.629-8.336-.568-.82-.809-1.824-.674-2.814l6.381-47.119c.268-1.982 1.961-3.463 3.963-3.463h24c1.115 0 2.18.465 2.938 1.285.756.818 1.137 1.916 1.051 3.027l-3.699 47.119c-.057.705-.297 1.383-.699 1.965-3.618 5.22-9.835 8.336-16.632 8.336zm-9.147-11.77c2.195 2.354 5.572 3.77 9.146 3.77 3.74 0 7.268-1.551 9.447-4.104l3.268-41.629h-16.18zm22.489 1.156h.039z" fill="#4c241d"/><path d="m78 141.286h188v20h-188z" fill="#bf7e68"/><path d="m266 165.286h-188c-2.209 0-4-1.791-4-4v-20c0-2.209 1.791-4 4-4h188c2.209 0 4 1.791 4 4v20c0 2.209-1.791 4-4 4zm-184-8h180v-12h-180z" fill="#4c241d"/></svg>